<mxfile host="app.diagrams.net" modified="2024-02-27T14:05:51.133Z" agent="Mozilla/5.0 (Windows NT 10.0; Win64; x64) AppleWebKit/537.36 (KHTML, like Gecko) Chrome/122.0.0.0 Safari/537.36" etag="Zw0WQDZ_tL_aiBEZIxKP" version="23.1.1" type="device">
  <diagram name="Página-1" id="h6HZM9qMLd9MyD7F2Jky">
    <mxGraphModel dx="1050" dy="1768" grid="1" gridSize="10" guides="1" tooltips="1" connect="1" arrows="1" fold="1" page="1" pageScale="1" pageWidth="827" pageHeight="1169" background="none" math="0" shadow="1">
      <root>
        <mxCell id="0" />
        <mxCell id="1" parent="0" />
        <mxCell id="JycG0dNZcEvQ9KI3BkSx-6" style="edgeStyle=orthogonalEdgeStyle;rounded=0;orthogonalLoop=1;jettySize=auto;html=1;exitX=0;exitY=1;exitDx=0;exitDy=0;entryX=1;entryY=0.5;entryDx=0;entryDy=0;labelBackgroundColor=none;strokeColor=#788AA3;fontColor=default;" edge="1" parent="1" source="1BYJ0X8dsrshYgGNHTBO-12" target="JycG0dNZcEvQ9KI3BkSx-4">
          <mxGeometry relative="1" as="geometry" />
        </mxCell>
        <mxCell id="JycG0dNZcEvQ9KI3BkSx-14" style="edgeStyle=orthogonalEdgeStyle;rounded=0;orthogonalLoop=1;jettySize=auto;html=1;exitX=0.75;exitY=1;exitDx=0;exitDy=0;entryX=0.5;entryY=0;entryDx=0;entryDy=0;labelBackgroundColor=none;strokeColor=#788AA3;fontColor=default;" edge="1" parent="1" source="1BYJ0X8dsrshYgGNHTBO-12" target="JycG0dNZcEvQ9KI3BkSx-12">
          <mxGeometry relative="1" as="geometry" />
        </mxCell>
        <mxCell id="JycG0dNZcEvQ9KI3BkSx-16" style="edgeStyle=orthogonalEdgeStyle;rounded=0;orthogonalLoop=1;jettySize=auto;html=1;exitX=0.25;exitY=1;exitDx=0;exitDy=0;entryX=0.75;entryY=0;entryDx=0;entryDy=0;labelBackgroundColor=none;strokeColor=#788AA3;fontColor=default;" edge="1" parent="1" source="1BYJ0X8dsrshYgGNHTBO-12" target="JycG0dNZcEvQ9KI3BkSx-7">
          <mxGeometry relative="1" as="geometry" />
        </mxCell>
        <mxCell id="JycG0dNZcEvQ9KI3BkSx-18" style="edgeStyle=orthogonalEdgeStyle;rounded=0;orthogonalLoop=1;jettySize=auto;html=1;entryX=0.5;entryY=0;entryDx=0;entryDy=0;labelBackgroundColor=none;strokeColor=#788AA3;fontColor=default;" edge="1" parent="1" source="1BYJ0X8dsrshYgGNHTBO-12" target="JycG0dNZcEvQ9KI3BkSx-10">
          <mxGeometry relative="1" as="geometry" />
        </mxCell>
        <mxCell id="JycG0dNZcEvQ9KI3BkSx-20" style="edgeStyle=orthogonalEdgeStyle;rounded=0;orthogonalLoop=1;jettySize=auto;html=1;strokeColor=#788AA3;fontColor=#46495D;fillColor=#B2C9AB;" edge="1" parent="1" source="1BYJ0X8dsrshYgGNHTBO-12">
          <mxGeometry relative="1" as="geometry">
            <mxPoint x="440" y="230" as="targetPoint" />
          </mxGeometry>
        </mxCell>
        <mxCell id="JycG0dNZcEvQ9KI3BkSx-25" style="edgeStyle=orthogonalEdgeStyle;rounded=0;orthogonalLoop=1;jettySize=auto;html=1;exitX=0.25;exitY=0;exitDx=0;exitDy=0;entryX=0.75;entryY=1;entryDx=0;entryDy=0;strokeColor=#788AA3;fontColor=#46495D;fillColor=#B2C9AB;" edge="1" parent="1" source="1BYJ0X8dsrshYgGNHTBO-12" target="JycG0dNZcEvQ9KI3BkSx-3">
          <mxGeometry relative="1" as="geometry" />
        </mxCell>
        <mxCell id="1BYJ0X8dsrshYgGNHTBO-12" value="&lt;font style=&quot;font-size: 23px;&quot;&gt;&lt;b&gt;&amp;nbsp; &amp;nbsp;Arquitetura com Redes&amp;nbsp; &amp;nbsp; Iot&amp;nbsp;&amp;nbsp;&lt;/b&gt;&lt;/font&gt;" style="rounded=1;whiteSpace=wrap;html=1;labelBackgroundColor=none;fillColor=#B2C9AB;strokeColor=#788AA3;fontColor=#46495D;" parent="1" vertex="1">
          <mxGeometry x="300" y="380" width="289" height="80" as="geometry" />
        </mxCell>
        <mxCell id="JycG0dNZcEvQ9KI3BkSx-3" value="&lt;h1&gt;O que é rede de computadores?&lt;/h1&gt;&lt;p&gt;&lt;font style=&quot;font-size: 15px;&quot;&gt;Quando dois ou mais computadores estão conectados.&lt;/font&gt;&lt;/p&gt;" style="text;html=1;strokeColor=none;fillColor=none;spacing=5;spacingTop=-20;whiteSpace=wrap;overflow=hidden;rounded=0;labelBackgroundColor=none;fontColor=#46495D;" vertex="1" parent="1">
          <mxGeometry x="30" y="-60" width="190" height="130" as="geometry" />
        </mxCell>
        <mxCell id="JycG0dNZcEvQ9KI3BkSx-4" value="&lt;h1&gt;Arquitetura&lt;br&gt;&lt;/h1&gt;&lt;p&gt;&lt;font style=&quot;font-size: 15px;&quot;&gt;Estrutura geral de um sistema de software ou Hardware, descreve a forma como os diferentes componentes do sistema se relacionam entre si.&lt;/font&gt;&lt;/p&gt;" style="text;html=1;strokeColor=none;fillColor=none;spacing=5;spacingTop=-20;whiteSpace=wrap;overflow=hidden;rounded=0;labelBackgroundColor=none;fontColor=#46495D;" vertex="1" parent="1">
          <mxGeometry x="50" y="300" width="190" height="160" as="geometry" />
        </mxCell>
        <mxCell id="JycG0dNZcEvQ9KI3BkSx-7" value="&lt;h1&gt;Arquitetura de Redes&amp;nbsp;&lt;/h1&gt;&lt;p&gt;&lt;font style=&quot;font-size: 15px;&quot;&gt;&lt;b&gt;Ponto a Ponto&lt;/b&gt; - Uso doméstico e de empresas pequenas, não precisa de servidor central.&lt;/font&gt;&lt;/p&gt;&lt;p&gt;&lt;font style=&quot;font-size: 15px;&quot;&gt;&lt;b&gt;Cliente - Servidor&lt;/b&gt; - Podem atender a vários clientes&lt;br&gt;simultaneamente, o servidor pode oferecer uma ampla variedade de&lt;br&gt;serviços, como armazenamento de dados, etc.&lt;br&gt;&lt;br&gt;&lt;/font&gt;&lt;/p&gt;" style="text;html=1;strokeColor=none;fillColor=none;spacing=5;spacingTop=-20;whiteSpace=wrap;overflow=hidden;rounded=0;labelBackgroundColor=none;fontColor=#46495D;" vertex="1" parent="1">
          <mxGeometry x="40" y="550" width="260" height="230" as="geometry" />
        </mxCell>
        <mxCell id="JycG0dNZcEvQ9KI3BkSx-10" value="&lt;h1&gt;Classificação de redes&lt;/h1&gt;&lt;p style=&quot;font-size: 15px;&quot;&gt;&lt;font style=&quot;font-size: 15px;&quot;&gt;&lt;b&gt;Redes domésticas/Pequenas empresas &lt;/b&gt;= Ponto a Ponto&lt;/font&gt;&lt;/p&gt;&lt;p style=&quot;font-size: 15px;&quot;&gt;&lt;font style=&quot;font-size: 15px;&quot;&gt;&lt;b&gt;Redes coorporativas&lt;/b&gt; = Cliente - Servidor&amp;nbsp;&lt;/font&gt;&lt;/p&gt;" style="text;html=1;strokeColor=none;fillColor=none;spacing=5;spacingTop=-20;whiteSpace=wrap;overflow=hidden;rounded=0;labelBackgroundColor=none;fontColor=#46495D;" vertex="1" parent="1">
          <mxGeometry x="349.5" y="585" width="190" height="205" as="geometry" />
        </mxCell>
        <mxCell id="JycG0dNZcEvQ9KI3BkSx-12" value="&lt;h1&gt;&lt;span style=&quot;background-color: initial;&quot;&gt;Tipo de redes&lt;/span&gt;&lt;/h1&gt;&lt;div style=&quot;font-size: 15px;&quot;&gt;&lt;font style=&quot;font-size: 15px;&quot;&gt;&amp;nbsp;É um conjunto de hardware&lt;br&gt;e software que permite a computadores&lt;br&gt;individuais estabelecerem comunicação entre si,&lt;br&gt;trocando e compartilhando informações e&lt;br&gt;recursos.&lt;/font&gt;&lt;/div&gt;&lt;div style=&quot;font-size: 15px;&quot;&gt;&lt;span style=&quot;background-color: initial;&quot;&gt;&lt;font style=&quot;font-size: 15px;&quot;&gt;&lt;b&gt;Lan&lt;/b&gt; (Local area network) - Distâncias curtas&amp;nbsp;&lt;/font&gt;&lt;/span&gt;&lt;/div&gt;&lt;div style=&quot;font-size: 15px;&quot;&gt;&lt;span style=&quot;background-color: initial;&quot;&gt;&lt;font style=&quot;font-size: 15px;&quot;&gt;&lt;b&gt;Wlan&lt;/b&gt; (Wireless local area network) - Igual Lan&lt;/font&gt;&lt;/span&gt;&lt;/div&gt;&lt;div style=&quot;font-size: 15px;&quot;&gt;&lt;span style=&quot;background-color: initial;&quot;&gt;&lt;font style=&quot;font-size: 15px;&quot;&gt;&lt;b&gt;Pan/Wlan&lt;/b&gt; (Personal Area Network) - Uso Residencial&amp;nbsp;&lt;/font&gt;&lt;/span&gt;&lt;/div&gt;&lt;div style=&quot;font-size: 15px;&quot;&gt;&lt;span style=&quot;background-color: initial;&quot;&gt;&lt;font style=&quot;font-size: 15px;&quot;&gt;&lt;b&gt;Man &lt;/b&gt;(Metropolitan area Network) - Interconecta sistemas de cidades próximas, maior alcance&lt;/font&gt;&lt;/span&gt;&lt;/div&gt;&lt;div style=&quot;font-size: 15px;&quot;&gt;&lt;span style=&quot;background-color: initial;&quot;&gt;&lt;font style=&quot;font-size: 15px;&quot;&gt;&lt;b&gt;Wan&lt;/b&gt;(Wide area Network) - Alcance global, conecta as &lt;b&gt;Lan´s&lt;/b&gt; do mundo todo.&lt;/font&gt;&lt;/span&gt;&lt;/div&gt;&lt;div style=&quot;font-size: 15px;&quot;&gt;&lt;span style=&quot;background-color: initial;&quot;&gt;&lt;font style=&quot;font-size: 15px;&quot;&gt;&amp;nbsp;&lt;/font&gt;&lt;/span&gt;&lt;/div&gt;" style="text;html=1;strokeColor=none;fillColor=none;spacing=5;spacingTop=-20;whiteSpace=wrap;overflow=hidden;rounded=0;labelBackgroundColor=none;fontColor=#46495D;" vertex="1" parent="1">
          <mxGeometry x="600" y="490" width="190" height="470" as="geometry" />
        </mxCell>
        <mxCell id="JycG0dNZcEvQ9KI3BkSx-19" value="&lt;h1&gt;Itens de rede&amp;nbsp;&lt;/h1&gt;&lt;div style=&quot;font-size: 15px;&quot;&gt;&lt;font style=&quot;font-size: 15px;&quot;&gt;&lt;b&gt;Hub&lt;/b&gt; =&amp;nbsp;Um hub de rede é um repetidor de dados, isso&lt;br&gt;significa que esse equipamento apenas transmite&lt;br&gt;dados pela infraestrutura física existente,&lt;span style=&quot;background-color: initial;&quot;&gt;&amp;nbsp;enviando as&lt;/span&gt;&lt;/font&gt;&lt;/div&gt;&lt;div style=&quot;font-size: 15px;&quot;&gt;&lt;font style=&quot;font-size: 15px;&quot;&gt;mensagens recebidas para todos os outros&lt;/font&gt;&lt;/div&gt;&lt;div style=&quot;font-size: 15px;&quot;&gt;&lt;font style=&quot;font-size: 15px;&quot;&gt;dispositivos conectados.&lt;/font&gt;&lt;/div&gt;&lt;div style=&quot;font-size: 15px;&quot;&gt;&lt;font style=&quot;font-size: 15px;&quot;&gt;&lt;b&gt;Switch&lt;/b&gt; =&amp;nbsp;Switch é um comutador que pode segmentar a rede&lt;br&gt;física em várias LANs lógicas conhecidas como VLANs,&lt;br&gt;e é capaz de dividir um único domínio de transmissão&lt;br&gt;em vários segmentos.&lt;/font&gt;&lt;/div&gt;&lt;div style=&quot;font-size: 15px;&quot;&gt;&lt;font style=&quot;font-size: 15px;&quot;&gt;&lt;b&gt;Roteador&lt;/b&gt; = O roteador é, por sua vez, uma espécie de pequeno&lt;br&gt;computador programado para manipular e rotear o tráfego&lt;br&gt;de dados entre dispositivos e redes.&lt;/font&gt;&lt;br&gt;&lt;/div&gt;&lt;div&gt;&lt;br&gt;&lt;/div&gt;" style="text;html=1;strokeColor=none;fillColor=none;spacing=5;spacingTop=-20;whiteSpace=wrap;overflow=hidden;rounded=0;fontColor=#46495D;" vertex="1" parent="1">
          <mxGeometry x="300" y="-220" width="265.5" height="430" as="geometry" />
        </mxCell>
        <mxCell id="JycG0dNZcEvQ9KI3BkSx-21" value="&lt;h1&gt;Topologias&lt;/h1&gt;&lt;p style=&quot;font-size: 15px;&quot;&gt;&lt;font style=&quot;font-size: 15px;&quot;&gt;A topologia de rede é o meio pelo qual uma rede&lt;br&gt;conecta os computadores e outros componentes&lt;br&gt;de uma rede de computadores e pode ser descrita&lt;br&gt;como física ou lógica.&lt;/font&gt;&lt;/p&gt;&lt;p style=&quot;font-size: 15px;&quot;&gt;&lt;font style=&quot;font-size: 15px;&quot;&gt;&lt;b&gt;Topologia de Barramento&lt;/b&gt;&lt;/font&gt;&lt;/p&gt;&lt;p style=&quot;font-size: 15px;&quot;&gt;&lt;font style=&quot;font-size: 15px;&quot;&gt;&lt;b&gt;Topologia Rede Estrela&lt;/b&gt;&lt;/font&gt;&lt;/p&gt;&lt;p style=&quot;font-size: 15px;&quot;&gt;&lt;font style=&quot;font-size: 15px;&quot;&gt;&lt;b&gt;Topologia Rede Árvore&amp;nbsp;&lt;/b&gt;&lt;/font&gt;&lt;/p&gt;&lt;p style=&quot;font-size: 15px;&quot;&gt;&lt;font style=&quot;font-size: 15px;&quot;&gt;&lt;b&gt;Topologia Rede Anel&lt;/b&gt;&lt;/font&gt;&lt;/p&gt;&lt;p style=&quot;font-size: 15px;&quot;&gt;&lt;font style=&quot;font-size: 15px;&quot;&gt;&lt;b&gt;Topologia Rede Hibrida&lt;/b&gt;&lt;/font&gt;&lt;/p&gt;&lt;p&gt;&lt;br&gt;&lt;/p&gt;" style="text;html=1;strokeColor=none;fillColor=none;spacing=5;spacingTop=-20;whiteSpace=wrap;overflow=hidden;rounded=0;fontColor=#46495D;" vertex="1" parent="1">
          <mxGeometry x="630" y="10" width="190" height="380" as="geometry" />
        </mxCell>
        <mxCell id="JycG0dNZcEvQ9KI3BkSx-24" style="edgeStyle=orthogonalEdgeStyle;rounded=0;orthogonalLoop=1;jettySize=auto;html=1;exitX=0.75;exitY=0;exitDx=0;exitDy=0;entryX=-0.002;entryY=0.661;entryDx=0;entryDy=0;entryPerimeter=0;strokeColor=#788AA3;fontColor=#46495D;fillColor=#B2C9AB;" edge="1" parent="1" source="1BYJ0X8dsrshYgGNHTBO-12" target="JycG0dNZcEvQ9KI3BkSx-21">
          <mxGeometry relative="1" as="geometry" />
        </mxCell>
      </root>
    </mxGraphModel>
  </diagram>
</mxfile>
